#!OML:ASF H:\Terrain\Patient Classification 1\Walking\liu\liu.ASF
:FULLY-SPECIFIED
:DEGREES
17
root 7.604560 15.899000 -34.614498 7.093010 -4.172460 -5.229530
lowerback -61.930698 11.459800 16.054899
upperback -13.177700 13.478001 30.627998
thorax 20.765800 6.755130 23.606501
lowerneck -195.744003 -49.757401 -122.138992
upperneck 156.188004 -64.528099 152.097000
head 90.573395 -22.345400 64.364601
rclavicle 0.000000 0.000000
rhumerus -412.989990 193.955994 -880.382996
rradius 626.579041
rwrist -347.901978
rhand -305.931000 -324.429016
rfingers 71.250198
rthumb -38.902401 -623.870972
lclavicle 0.000000 0.000000
lhumerus -396.444031 -76.847397 899.439026
lradius 286.830017
lwrist 67.523300
lhand -73.128296 -235.237000
lfingers 71.250198
lthumb 185.699005 56.098900
rfemur 50.495701 64.177597 311.333984
rtibia 116.431000
rfoot -195.846008 -13.679700
rtoes -58.518700
lfemur -401.221985 -3.055950 -79.972702
ltibia 190.361008
lfoot -143.253006 150.406998
ltoes -129.423004
18
root 7.625190 15.892500 -34.473099 7.234270 -4.397650 -5.613660
lowerback -64.502899 11.712700 20.294399
upperback -12.954901 13.384399 32.019802
thorax 22.497002 6.726950 22.729700
lowerneck -196.173004 -49.527203 -122.421997
upperneck 155.544006 -63.745300 150.910995
head 90.266304 -22.104500 64.069901
rclavicle -0.000000 0.000000
rhumerus -414.630005 197.364990 -884.125977
rradius 628.166992
rwrist -350.920990
rhand -310.783020 -296.450989
rfingers 71.250198
rthumb -43.587498 -595.802002
lclavicle -0.000000 0.000000
lhumerus -398.171997 -78.570801 901.419006
lradius 285.639008
lwrist 67.102402
lhand -74.988396 -239.433990
lfingers 71.250198
lthumb 183.910004 52.072701
rfemur 60.012596 62.859802 313.908020
rtibia 105.458000
rfoot -190.526001 -10.943201
rtoes -66.725204
lfemur -404.122009 -11.374701 -68.646599
ltibia 187.985001
lfoot -153.437988 160.848999
ltoes -105.775002
19
root 7.636870 15.894500 -34.329399 7.121920 -5.051900 -6.093010
lowerback -63.770199 14.142600 27.182301
upperback -12.274899 16.187099 30.752899
thorax 22.948599 8.168910 17.783300
lowerneck -199.815002 -48.891800 -117.923004
upperneck 159.658005 -63.890602 149.111008
head 92.124100 -21.882900 62.750301
rclavicle 0.000000 -0.000000
rhumerus -415.682007 193.962997 -890.530029
rradius 627.375977
rwrist -349.098999
rhand -314.242004 -292.481018
rfingers 71.250198
rthumb -46.927700 -591.760986
lclavicle 0.000000 -0.000000
lhumerus -402.088013 -86.889999 901.427002
lradius 288.481018
lwrist 70.213997
lhand -76.207001 -232.962006
lfingers 71.250198
lthumb 182.738007 58.654400
rfemur 72.684998 67.166199 317.326996
rtibia 94.984802
rfoot -186.051010 -9.652170
rtoes -68.348801
lfemur -402.639008 -16.483400 -56.802002
ltibia 186.900009
lfoot -160.303986 172.353989
ltoes -105.633003
20
root 7.619730 15.899100 -34.206501 8.568660 -6.934490 -6.864590
lowerback -74.683899 21.250000 35.172302
upperback -16.832901 24.717501 28.199001
thorax 24.671600 12.449699 11.733000
lowerneck -200.501007 -47.477600 -110.552994
upperneck 162.169983 -63.977501 147.391998
head 92.812004 -21.566601 60.909401
rclavicle -0.000000 -0.000000
rhumerus -418.558014 189.676987 -900.288025
rradius 627.390015
rwrist -347.210022
rhand -308.253998 -319.500000
rfingers 71.250198
rthumb -41.145702 -618.900024
lclavicle -0.000000 -0.000000
lhumerus -407.776001 -95.163300 898.876038
lradius 292.018005
lwrist 72.063095
lhand -77.524300 -225.306000
lfingers 71.250198
lthumb 181.470001 66.428200
rfemur 70.350197 86.863701 320.859009
rtibia 80.644997
rfoot -172.936996 -10.117701
rtoes -73.260895
lfemur -412.635986 -4.830900 -42.440601
ltibia 185.751007
lfoot -164.153992 181.979004
ltoes -114.061005
21
root 7.641240 15.887300 -34.059898 8.647910 -7.060550 -6.848300
lowerback -76.574303 20.551201 37.187500
upperback -17.225700 23.562300 27.039001
thorax 25.437201 11.888200 9.363970
lowerneck -196.902008 -46.366100 -110.210999
upperneck 159.257996 -62.741699 148.365997
head 91.014793 -21.049801 61.285400
rclavicle -0.000000 0.000000
rhumerus -420.863983 191.797012 -905.911011
rradius 627.871033
rwrist -345.430969
rhand -299.605011 -344.371979
rfingers 71.250198
rthumb -32.792801 -643.917969
lclavicle -0.000000 0.000000
lhumerus -412.164001 -95.891891 898.531006
lradius 292.755005
lwrist 69.702698
lhand -81.145203 -219.640991
lfingers 71.250198
lthumb 177.985992 72.414001
rfemur 81.112808 85.921005 319.522003
rtibia 68.050499
rfoot -163.143997 -10.553599
rtoes -75.620499
lfemur -415.519989 -6.245700 -41.528000
ltibia 187.010986
lfoot -167.653992 182.136993
ltoes -124.134995
22
root 7.702660 15.860100 -33.891300 7.430590 -5.453020 -6.480790
lowerback -69.999298 13.968300 39.084202
upperback -12.959300 14.904500 26.235800
thorax 26.149599 7.638940 6.513570
lowerneck -197.996994 -46.720600 -112.500000
upperneck 158.558990 -62.932400 150.903992
head 91.187294 -20.998800 62.567600
rclavicle -0.000000 -0.000000
rhumerus -420.942993 193.210999 -908.034973
rradius 627.114990
rwrist -342.373993
rhand -298.548004 -321.860992
rfingers 71.250198
rthumb -31.772100 -621.421997
lclavicle -0.000000 -0.000000
lhumerus -412.878998 -96.274704 899.208984
lradius 289.269989
lwrist 65.877098
lhand -83.920296 -219.554993
lfingers 71.250198
lthumb 175.316010 72.739700
rfemur 106.990997 65.278000 317.341003
rtibia 52.203598
rfoot -158.556000 -10.857400
rtoes -79.944504
lfemur -410.423004 -17.352001 -50.715900
ltibia 186.434998
lfoot -162.816010 172.807999
ltoes -132.158997
23
root 7.682210 15.855200 -33.768501 9.098810 -7.871900 -7.615500
lowerback -84.423599 23.062899 44.154900
upperback -15.664400 25.654900 28.949202
thorax 31.660299 13.039400 8.060520
lowerneck -201.285004 -47.450500 -111.955994
upperneck 160.653992 -64.173599 151.425995
head 92.693596 -21.333500 62.562798
rclavicle -0.000000 0.000000
rhumerus -421.545990 193.031998 -911.062988
rradius 626.591003
rwrist -342.023987
rhand -300.377014 -293.612000
rfingers 71.250198
rthumb -33.538403 -593.145996
lclavicle -0.000000 0.000000
lhumerus -413.177979 -98.972900 899.739014
lradius 285.825012
lwrist 64.524101
lhand -85.553802 -224.032990
lfingers 71.250198
lthumb 173.743988 68.401596
rfemur 112.147995 90.911400 324.916992
rtibia 18.483000
rfoot -136.380997 -16.721800
rtoes -106.901001
lfemur -419.559998 6.091580 -36.733402
ltibia 186.867004
lfoot -159.175995 180.484009
ltoes -132.402008
24
root 7.750190 15.805600 -33.581100 7.241070 -5.450950 -6.781160
lowerback -72.497604 13.454000 41.875000
upperback -11.085700 13.719300 27.600998
thorax 29.495298 7.121920 6.353850
lowerneck -199.852005 -47.484596 -112.305000
upperneck 159.727005 -63.988098 150.723999
head 92.067299 -21.410101 62.355301
rclavicle -0.000000 -0.000000
rhumerus -424.441986 194.424988 -913.544006
rradius 626.447998
rwrist -340.350006
rhand -302.980011 -300.169006
rfingers 71.250198
rthumb -36.052700 -599.661987
lclavicle -0.000000 -0.000000
lhumerus -415.738983 -98.829803 901.588989
lradius 284.588989
lwrist 63.031601
lhand -86.285400 -224.311005
lfingers 71.250198
lthumb 173.040009 68.185501
rfemur 145.610001 60.476997 320.083984
rtibia 0.000000
rfoot -134.100006 -19.237801
rtoes -140.298004
lfemur -409.844025 -6.885440 -55.923500
ltibia 187.166992
lfoot -150.987991 161.117996
ltoes -134.362000
25
root 7.756550 15.810200 -33.444801 6.849410 -7.957410 -6.872600
lowerback -65.074501 20.569302 38.442600
upperback -10.059600 23.816500 29.113100
thorax 26.411200 12.081900 10.562600
lowerneck -197.675995 -46.986599 -113.188004
upperneck 157.389999 -62.735001 149.695999
head 90.669205 -21.100500 62.230000
rclavicle -0.000000 -0.000000
rhumerus -427.315002 196.634995 -915.541016
rradius 625.094971
rwrist -336.511993
rhand -303.479004 -304.757996
rfingers 71.250198
rthumb -36.533897 -604.242004
lclavicle -0.000000 -0.000000
lhumerus -417.886017 -95.156898 902.927002
lradius 281.270996
lwrist 56.964302
lhand -87.158501 -224.315002
lfingers 71.250198
lthumb 172.199005 68.255402
rfemur 155.794006 81.829102 318.121002
rtibia -0.000000
rfoot -126.678001 -19.524700
rtoes -147.265991
lfemur -396.220032 4.606830 -52.134899
ltibia 189.561996
lfoot -156.173004 170.198990
ltoes -125.122002
26
root 7.802910 15.803500 -33.285900 7.398120 -6.465800 -6.817270
lowerback -73.604401 15.164400 40.469398
upperback -11.721000 15.981701 29.902599
thorax 29.398001 8.213320 9.763850
lowerneck -198.159012 -46.438698 -114.355003
upperneck 157.126999 -61.501198 149.510010
head 90.508202 -20.600500 62.538799
rclavicle -0.000000 -0.000000
rhumerus -428.468018 199.011993 -917.229980
rradius 622.351013
rwrist -332.756012
rhand -301.602997 -300.253998
rfingers 71.250198
rthumb -34.722900 -599.768005
lclavicle -0.000000 -0.000000
lhumerus -418.842010 -91.602402 903.845947
lradius 276.447998
lwrist 50.088200
lhand -89.128403 -225.548004
lfingers 71.250198
lthumb 170.303009 67.187202
rfemur 154.703995 66.466797 315.825989
rtibia -0.000000
rfoot -123.388000 -15.861599
rtoes -162.282013
lfemur -407.901978 7.515300 -62.680897
ltibia 190.386993
lfoot -143.431000 153.164001
ltoes -141.190994
